<?xml version="1.0" encoding="UTF-8"?>
<svg width="33px" height="33px" viewBox="0 0 33 33" version="1.1" xmlns="http://www.w3.org/2000/svg" xmlns:xlink="http://www.w3.org/1999/xlink">
    <title>编组 20</title>
    <g id="Nu1L-Team" stroke="none" stroke-width="1" fill="none" fill-rule="evenodd">
        <g id="Nu1L-Team/Desktop首页" transform="translate(-441.5, -4299.5)">
            <g id="战队队员" transform="translate(0, 3695)">
                <g id="队员1" transform="translate(250, 291)">
                    <g id="标签及网址" transform="translate(36, 314)">
                        <g id="编组-20" transform="translate(156, 0)">
                            <circle id="椭圆形" stroke="#E0EFFF" cx="16" cy="16" r="16"></circle>
                            <g id="icon/20px/官网" transform="translate(6, 6)" fill-rule="nonzero">
                                <g id="编组">
                                    <rect id="矩形" fill-opacity="0.01" fill="#FFFFFF" x="0" y="0" width="20" height="20"></rect>
                                    <g id="网站-" transform="translate(2, 2)" fill="#007BFF">
                                        <path d="M8,-3.50596745e-16 C12.4182456,-3.50596745e-16 16,3.58175439 16,8 C16,12.4182456 12.4182456,16 8,16 C3.58175439,16 -3.50596745e-16,12.4182456 -3.50596745e-16,8 C-3.50596745e-16,3.58175439 3.58175439,-3.50596745e-16 8,-3.50596745e-16 Z M10.1645614,8.63192982 L5.8354386,8.63192982 C5.83824563,8.71614035 5.84175439,8.79964911 5.84596492,8.88280702 L5.86210526,9.16947368 L5.88245613,9.45192982 L5.89438597,9.59157895 L5.92070176,9.86736842 C5.93052632,9.9585965 5.94070176,10.0487719 5.95157895,10.1382456 L5.98596492,10.4038597 C5.99789474,10.4915789 6.01052632,10.5782456 6.02385965,10.6642105 L6.06526316,10.9189474 C6.08,11.002807 6.09473684,11.085614 6.11052632,11.1677193 L6.1585965,11.4101754 C6.17508773,11.4901754 6.19228071,11.5691228 6.20982456,11.6466667 L6.26385965,11.8761403 L6.29192982,11.9884211 L6.35052632,12.2077193 L6.41157895,12.4196491 L6.47473684,12.6238597 C6.48561403,12.6575439 6.49649123,12.6905263 6.50771929,12.7231579 L6.57438597,12.9161403 C6.59719299,12.9785965 6.62,13.0403509 6.64350877,13.1003509 L6.71438597,13.2761403 C6.75017544,13.3621053 6.78701755,13.4445614 6.82421053,13.5238597 L6.89929824,13.6775439 C7.24105263,14.3487719 7.62736842,14.7368421 8,14.7368421 C8.37263158,14.7368421 8.75894737,14.3487719 9.10070176,13.6775439 L9.17578947,13.5238597 C9.21298245,13.4445614 9.24947368,13.3624562 9.28561403,13.2761403 L9.35649123,13.1003509 C9.38,13.0403509 9.40280702,12.9785965 9.42561403,12.9157895 L9.49228071,12.7231579 C9.50350878,12.6905263 9.51438597,12.6575439 9.52491229,12.6238597 L9.58842105,12.4196491 L9.64947368,12.2077193 L9.70771929,11.9884211 L9.73578947,11.8761403 L9.79017544,11.6466667 C9.80771931,11.5691228 9.82491229,11.4901754 9.8414035,11.4101754 L9.88947368,11.1677193 C9.91298245,11.0449123 9.93508771,10.9196491 9.95578947,10.7922807 L9.9954386,10.5347368 C10.0021053,10.4912281 10.0080702,10.4477193 10.0140351,10.4038597 L10.0484211,10.1382456 C10.0592982,10.0487719 10.0694737,9.95824561 10.0792982,9.86736842 L10.105614,9.59157895 L10.1175439,9.45192982 L10.1378947,9.16947368 L10.1540351,8.88280702 C10.1581226,8.79920657 10.1616314,8.71557884 10.1645614,8.63192982 L10.1645614,8.63192982 Z M4.57122808,8.63157895 L1.29228071,8.63157895 C1.54315789,11.3273684 3.38175439,13.5617544 5.86350877,14.3908772 C5.66025394,14.0219266 5.48796684,13.6367452 5.34842105,13.2392982 L5.27473684,13.0252632 L5.20421053,12.8045614 L5.13719298,12.5782456 C5.07005052,12.3422715 5.00979108,12.104393 4.95649123,11.8649123 L4.90350877,11.6161403 L4.85403508,11.362807 L4.80842105,11.1042105 L4.76631579,10.8410526 C4.75273079,10.7521523 4.73986487,10.6631435 4.72771929,10.5740351 L4.69333334,10.3021053 L4.67789474,10.1649123 L4.64912281,9.88701755 L4.6245614,9.60561403 C4.61298245,9.46421053 4.60350877,9.3214035 4.59508771,9.17719298 L4.58035087,8.88701755 L4.57473684,8.74105263 L4.57122808,8.63157895 L4.57122808,8.63157895 Z M14.7077193,8.63157895 L11.4280702,8.63157895 L11.4249123,8.74105263 L11.4192982,8.88701755 L11.4045614,9.17719298 C11.3964912,9.32105263 11.3866667,9.46421053 11.3750877,9.60561403 L11.3505263,9.88701755 L11.3217544,10.1649123 L11.3063158,10.3021053 L11.2715789,10.5740351 C11.2596491,10.6638596 11.2470175,10.7529825 11.2333333,10.8414035 L11.1912281,11.1045614 L11.145614,11.362807 L11.0964912,11.6161403 L11.0701754,11.7410526 L11.0150877,11.9870175 C10.9690439,12.1853098 10.9181514,12.3824449 10.8624561,12.5782456 L10.7954386,12.8045614 L10.7249123,13.0252632 L10.6512281,13.2392982 C10.5117018,13.6368092 10.3392924,14.0220017 10.1357895,14.3908772 C12.6178947,13.5617544 14.4564912,11.3273684 14.7073684,8.63192982 L14.7077193,8.63157895 Z M5.86385965,1.60947368 L5.82736842,1.6214035 C3.36385965,2.45964913 1.54175439,4.68596492 1.29228071,7.36842105 L4.57122808,7.36842105 L4.57473684,7.25894737 L4.58035087,7.11298245 L4.59508771,6.82280702 C4.60315789,6.67894737 4.61298245,6.53578947 4.6245614,6.39438597 L4.64912281,6.11298245 L4.67789474,5.83508771 L4.69333334,5.69789474 L4.72807018,5.42596492 C4.74,5.33614036 4.75263158,5.24701755 4.76631579,5.1585965 L4.80842105,4.8954386 L4.85403508,4.63719298 L4.90315789,4.38385965 L4.92947368,4.25894737 L4.9845614,4.01298245 C5.03157895,3.81017543 5.08280701,3.61298245 5.13719298,3.42175439 L5.20421053,3.1954386 L5.27473684,2.97473684 L5.34842105,2.76070176 C5.48794731,2.36319079 5.66035675,1.97799829 5.86385965,1.60912281 L5.86385965,1.60947368 Z M8.00771929,1.26350877 L7.99228071,1.26350877 C7.62210526,1.26877192 7.2385965,1.65614035 6.89929824,2.32280702 L6.82421053,2.47649123 C6.78701755,2.55578947 6.75052632,2.63789474 6.71438597,2.72421053 L6.64350877,2.9 C6.61971617,2.96123632 6.59667351,3.02276139 6.57438597,3.0845614 L6.50771929,3.27719298 C6.49649122,3.30982456 6.48561403,3.34280701 6.47508771,3.37649123 L6.41157895,3.58070176 L6.35052632,3.79263158 L6.29228071,4.01192982 L6.26421053,4.12421053 L6.20982456,4.35368421 C6.19228069,4.43122808 6.17508771,4.51017544 6.1585965,4.59017544 L6.11052632,4.83263158 C6.08701755,4.9554386 6.06491229,5.08070176 6.04421053,5.20807018 L6.0045614,5.46561403 C5.99789474,5.5091228 5.99192982,5.55263158 5.98596492,5.59649123 L5.95157895,5.86210526 C5.94070176,5.95157895 5.93052632,6.04210526 5.92070176,6.13298245 L5.89438597,6.40877192 L5.88245613,6.54842105 L5.86210526,6.83087719 L5.84596492,7.11754387 C5.84187579,7.20126123 5.83836693,7.28500593 5.8354386,7.36877192 L10.1642105,7.36877192 L10.1540351,7.11754387 L10.1378947,6.83087719 L10.1175439,6.54842105 L10.105614,6.40877192 L10.0792982,6.13298245 C10.0694737,6.04175437 10.0592982,5.95157895 10.0484211,5.86210526 L10.0140351,5.59649123 C10.0021207,5.50960473 9.98948869,5.42281814 9.97614035,5.33614035 L9.93473684,5.0814035 C9.92,4.99754385 9.90526316,4.91473684 9.88947368,4.83263158 L9.8414035,4.59017544 C9.82503528,4.51119337 9.80795857,4.43235979 9.79017544,4.35368421 L9.73614035,4.12421053 L9.70807018,4.01192982 L9.64947368,3.79263158 L9.58842105,3.58070176 L9.52526316,3.37649123 C9.51438597,3.34280702 9.50350877,3.30982457 9.49228071,3.27719298 L9.42561403,3.08421053 C9.4033238,3.02252794 9.38028115,2.96111985 9.35649123,2.9 L9.28561403,2.72421053 C9.24982456,2.63824561 9.21298245,2.55578947 9.17578947,2.47649123 L9.10070176,2.32280702 C8.75894737,1.65122808 8.37263158,1.26315789 8,1.26315789 L8.00771929,1.26315789 L8.00771929,1.26350877 Z M10.1364912,1.60947368 L10.18,1.68877192 C10.3533333,2.0091228 10.5108772,2.36842105 10.6515789,2.76105263 L10.7252632,2.97508771 L10.7957895,3.19578947 L10.862807,3.42210526 C10.9284211,3.65157895 10.9887719,3.88947368 11.0435088,4.1354386 L11.0964912,4.38421053 L11.1459649,4.63754387 L11.1915789,4.89614035 L11.2336842,5.15929824 C11.2473684,5.24736842 11.26,5.33649122 11.2722807,5.42631579 L11.3066667,5.69824561 L11.3221053,5.8354386 L11.3508772,6.11333334 L11.3754386,6.39473684 C11.3870175,6.53614035 11.3964912,6.67894737 11.4049123,6.82315789 L11.4196491,7.11333334 L11.4252632,7.25929824 L11.4284211,7.36877192 L14.7077193,7.36877192 C14.457193,4.67333332 12.6185965,2.43894737 10.1364912,1.60947368 L10.1364912,1.60947368 Z" id="形状"></path>
                                    </g>
                                </g>
                            </g>
                        </g>
                    </g>
                </g>
            </g>
        </g>
    </g>
</svg>