<?xml version="1.0" encoding="UTF-8"?>
<svg width="12px" height="11.9972814px" viewBox="0 0 12 11.9972814" version="1.1" xmlns="http://www.w3.org/2000/svg" xmlns:xlink="http://www.w3.org/1999/xlink">
    <title>icon/14px/类型</title>
    <g id="Nu1L-Team" stroke="none" stroke-width="1" fill="none" fill-rule="evenodd">
        <g id="Nu1L-Team/Desktop首页" transform="translate(-287, -4311)" fill-rule="nonzero">
            <g id="战队队员" transform="translate(0, 3695)">
                <g id="队员1" transform="translate(250, 291)">
                    <g id="标签及网址" transform="translate(36, 314)">
                        <g id="编组-53" transform="translate(0, 8)">
                            <g id="icon/14px/类型" transform="translate(0, 2)">
                                <rect id="矩形" fill-opacity="0" fill="#62728C" x="0" y="0" width="14" height="14"></rect>
                                <path d="M7.06973225,1.6 L12.1089133,6.63918023 C12.3030522,6.8344736 12.4001114,7.08983905 12.3999999,7.34527468 C12.3998884,7.60087724 12.3024823,7.85648944 12.1091832,8.05094075 L8.05653892,12.1035851 C7.8687125,12.2916341 7.6138177,12.3972814 7.34802196,12.3972814 C7.08229556,12.3972814 6.82744929,12.2917241 6.6394002,12.1034803 L1.6,7.06969014 L1.6,1.6 L7.06973225,1.6 Z" id="路径" stroke="#62728C" stroke-width="1.2"></path>
                                <path d="M5,6 C5.55228,6 6,5.55228 6,5 C6,4.44772 5.55228,4 5,4 C4.44772,4 4,4.44772 4,5 C4,5.55228 4.44772,6 5,6 Z" id="路径" fill="#62728C"></path>
                            </g>
                        </g>
                    </g>
                </g>
            </g>
        </g>
    </g>
</svg>